#!OML:ASF H:\BabyWalks\Project 1\Capture day 1\Session 1\baby.ASF
:FULLY-SPECIFIED
:DEGREES
1002
root -7.29353 9.73935 1.45727 518.806 -82.2806 -513.282
lowerback 39.0117 2.12644 -0.228544
upperback 9.52141 1.22066 0.789768
thorax -8.44788 -0.0259064 0.560333
lowerneck -0.227896 2.61693 3.98586
upperneck -19.9593 2.26883 -5.95539
head -5.84075 0.973946 -2.64265
rclavicle 5.1684e-015 -1.86858e-014
rhumerus -38.5342 18.2681 -81.0837
rradius 99.8099
rwrist 12.4903
rhand -41.9979 -39.9495
rfingers 7.12502
rthumb -14.8931 -69.3942
lclavicle 5.1684e-015 -1.86858e-014
lhumerus -34.2962 -14.8779 77.3389
lradius 104.739
lwrist -12.6892
lhand -11.7092 20.6356
lfingers 7.12502
lthumb 14.3373 50.1205
rfemur -80.3593 -43.2802 35.5087
rtibia 139.485
rfoot -39.7398 3.58232
rtoes -26.1217
lfemur -89.2025 46.5299 -32.9835
ltibia 137.338
lfoot -43.3254 -18.9026
ltoes -9.5912
1003
root -7.29159 9.84615 1.45973 518.216 -82.2623 -512.575
lowerback 38.7491 2.1071 -0.248081
upperback 9.44898 1.21214 0.77362
thorax -8.44247 -0.0201138 0.55709
lowerneck -0.222969 2.57379 4.05702
upperneck -20.1238 2.19261 -5.97994
head -5.89588 0.928497 -2.66196
rclavicle -1.37161e-014 -1.45113e-014
rhumerus -38.1035 18.3473 -81.134
rradius 98.8179
rwrist 12.3006
rhand -41.7788 -39.7385
rfingers 7.12502
rthumb -14.6821 -69.1986
lclavicle -1.37161e-014 -1.45113e-014
lhumerus -33.962 -14.9791 77.3942
lradius 103.936
lwrist -12.5838
lhand -11.2877 20.6896
lfingers 7.12502
lthumb 14.7433 50.1453
rfemur -79.7663 -42.5341 35.2301
rtibia 138.555
rfoot -39.3557 3.69418
rtoes -26.1403
lfemur -88.4084 45.8701 -32.4699
ltibia 136.462
lfoot -43.1457 -18.8063
ltoes -9.53157
1004
root -7.28936 9.95542 1.46187 517.506 -82.2573 -511.748
lowerback 38.4813 2.07989 -0.258947
upperback 9.36872 1.19944 0.763083
thorax -8.44319 -0.0158171 0.556932
lowerneck -0.192353 2.52397 4.14982
upperneck -20.3177 2.10458 -6.01962
head -5.96491 0.876562 -2.6901
rclavicle -6.75868e-015 -1.78906e-015
rhumerus -37.6576 18.4461 -81.1883
rradius 97.7874
rwrist 12.0815
rhand -41.5459 -39.5309
rfingers 7.12502
rthumb -14.4576 -69.0073
lclavicle -6.75868e-015 -1.78906e-015
lhumerus -33.5939 -15.1085 77.4477
lradius 103.076
lwrist -12.4852
lhand -10.8531 20.7244
lfingers 7.12502
lthumb 15.162 50.1489
rfemur -79.1839 -41.8008 34.9976
rtibia 137.606
rfoot -38.9579 3.75052
rtoes -26.1249
lfemur -87.5927 45.1798 -31.9285
ltibia 135.568
lfoot -42.9663 -18.718
ltoes -9.4495
1005
root -7.28678 10.0673 1.46352 516.696 -82.2683 -510.826
lowerback 38.211 2.04603 -0.266985
upperback 9.28117 1.18143 0.75747
thorax -8.45038 -0.0135838 0.562573
lowerneck -0.148854 2.47157 4.24983
upperneck -20.5308 2.01203 -6.06081
head -6.0426 0.821735 -2.72024
rclavicle 1.59028e-014 7.35503e-015
rhumerus -37.1917 18.581 -81.244
rradius 96.7058
rwrist 11.8202
rhand -41.3117 -39.3292
rfingers 7.12502
rthumb -14.232 -68.8216
lclavicle 1.59028e-014 7.35503e-015
lhumerus -33.1908 -15.2645 77.4994
lradius 102.164
lwrist -12.3831
lhand -10.4094 20.7364
lfingers 7.12502
lthumb 15.5894 50.1281
rfemur -78.6069 -41.0821 34.8085
rtibia 136.635
rfoot -38.5563 3.7357
rtoes -26.0756
lfemur -86.7541 44.4526 -31.3632
ltibia 134.652
lfoot -42.7804 -18.631
ltoes -9.36306
1006
root -7.28387 10.1819 1.4646 515.726 -82.2899 -509.753
lowerback 37.9277 2.00695 -0.268962
upperback 9.20177 1.15943 0.759797
thorax -8.4433 -0.0136299 0.575111
lowerneck -0.118693 2.42361 4.34458
upperneck -20.7564 1.92483 -6.09249
head -6.12223 0.768399 -2.74669
rclavicle -1.39149e-015 -4.96962e-015
rhumerus -36.684 18.7347 -81.2977
rradius 95.5764
rwrist 11.5217
rhand -41.0716 -39.1281
rfingers 7.12502
rthumb -14.0006 -68.6366
lclavicle -1.39149e-015 -4.96962e-015
lhumerus -32.7279 -15.4405 77.5447
lradius 101.196
lwrist -12.2654
lhand -9.98735 20.7145
lfingers 7.12502
lthumb 15.9958 50.0741
rfemur -78.0164 -40.3743 34.6656
rtibia 135.638
rfoot -38.1609 3.64321
rtoes -25.9953
lfemur -85.8925 43.7045 -30.7637
ltibia 133.716
lfoot -42.5874 -18.5569
ltoes -9.25663
1007
root -7.28104 10.2996 1.4653 514.695 -82.3186 -508.633
lowerback 37.6598 1.96553 -0.270096
upperback 9.11167 1.13545 0.761662
thorax -8.45243 -0.0142953 0.587327
lowerneck -0.108705 2.37875 4.4144
upperneck -20.9614 1.84697 -6.08933
head -6.1926 0.71889 -2.75747
rclavicle -9.93923e-016 -1.19271e-014
rhumerus -36.1641 18.9133 -81.3605
rradius 94.392
rwrist 11.1788
rhand -40.8257 -38.9212
rfingers 7.12502
rthumb -13.7636 -68.446
lclavicle -9.93923e-016 -1.19271e-014
lhumerus -32.2369 -15.6434 77.5902
lradius 100.18
lwrist -12.1183
lhand -9.53284 20.6908
lfingers 7.12502
lthumb 16.4335 50.0147
rfemur -77.3973 -39.6832 34.5428
rtibia 134.613
rfoot -37.7783 3.48298
rtoes -25.8922
lfemur -85.0008 42.9224 -30.1493
ltibia 132.739
lfoot -42.3679 -18.4799
ltoes -9.12173
1008
root -7.27804 10.4205 1.4652 513.543 -82.3576 -507.405
lowerback 37.3998 1.92086 -0.271992
upperback 9.0164 1.10792 0.767863
thorax -8.46927 -0.0165485 0.605818
lowerneck -0.127053 2.34115 4.45901
upperneck -21.1436 1.78329 -6.05523
head -6.25109 0.675722 -2.75386
rclavicle 9.74045e-015 3.02153e-014
rhumerus -35.6215 19.1074 -81.4301
rradius 93.152
rwrist 10.7998
rhand -40.572 -38.7015
rfingers 7.12502
rthumb -13.5192 -68.2426
lclavicle 9.74045e-015 3.02153e-014
lhumerus -31.7106 -15.8624 77.6377
lradius 99.1154
lwrist -11.9398
lhand -9.09798 20.64
lfingers 7.12502
lthumb 16.8521 49.9288
rfemur -76.7478 -39.0115 34.4462
rtibia 133.556
rfoot -37.4137 3.26416
rtoes -25.7776
lfemur -84.0975 42.1045 -29.5257
ltibia 131.72
lfoot -42.1106 -18.3933
ltoes -8.97233
